
              <svg id="sw-js-blob-svg" viewBox="0 0 100 100" xmlns="http://www.w3.org/2000/svg" version="1.1">
                    <defs> 
                        <linearGradient id="sw-gradient" x1="0" x2="1" y1="1" y2="0">
                            <stop id="stop1" stop-color="rgba(248, 117, 55, 1)" offset="0%"></stop>
                            <stop id="stop2" stop-color="rgba(251, 168, 31, 1)" offset="100%"></stop>
                        </linearGradient>
                    </defs>
                <path fill="url(#sw-gradient)" d="M24.3,-26.2C31.9,-22.6,38.7,-15.3,39.2,-7.7C39.6,0,33.7,8.1,27.9,14.1C22,20.2,16.2,24.3,8.9,29.1C1.5,33.8,-7.3,39.1,-16,38.4C-24.6,37.6,-33.1,30.8,-35.6,22.5C-38.2,14.1,-34.8,4.3,-31.6,-4.2C-28.5,-12.7,-25.5,-19.8,-20.3,-23.7C-15,-27.7,-7.5,-28.5,0.4,-29C8.4,-29.5,16.8,-29.7,24.3,-26.2Z" width="100%" height="100%" transform="translate(50 50)" stroke-width="0" style="transition: all 0.3s ease 0s;"></path>
              </svg>