<svg xmlns="http://www.w3.org/2000/svg"  viewBox="0 0 30 30" width="80px" height="80px" baseProfile="basic"><path fill="#b0c1d4" d="M27.123,24.5c-0.76,0-1.484-0.396-1.939-1.06l-3.938-5.746l-3.938,5.745 c-0.455,0.664-1.18,1.061-1.94,1.061h-1.825l6.184-9.023L13.573,6.5h1.826c0.761,0,1.486,0.396,1.94,1.06l3.907,5.7l3.907-5.7 c0.454-0.664,1.18-1.06,1.94-1.06h1.825l-6.153,8.977l6.185,9.023H27.123z"/><path fill="#66798f" d="M27.969,7l-5.81,8.477L28,24h-0.877c-0.599,0-1.164-0.311-1.527-0.842l-4.351-6.348l-4.351,6.348 C16.531,23.689,15.966,24,15.367,24h-0.877l5.841-8.523L14.522,7h0.877c0.599,0,1.164,0.311,1.527,0.842l4.32,6.303l4.32-6.303 C25.929,7.311,26.493,7,27.092,7H27.969 M29.867,6h-1.898h-0.877c-0.925,0-1.804,0.477-2.352,1.277l-3.495,5.099L17.75,7.277 C17.203,6.477,16.323,6,15.398,6h-0.877h-1.898l1.073,1.565l5.423,7.912l-5.454,7.957L12.593,25h1.898h0.877 c0.925,0,1.804-0.477,2.352-1.277l3.526-5.144l3.526,5.144C25.319,24.523,26.198,25,27.123,25H28h1.898l-1.073-1.565l-5.454-7.957 l5.423-7.912L29.867,6L29.867,6z"/><g><path fill="#b0c1d4" d="M7.53,24.487c-3.876,0-7.03-3.26-7.03-7.268v-3.412c0-4.008,3.153-7.268,7.03-7.268 s7.03,3.26,7.03,7.268v3.124L2.951,16.932v0.287c0,2.656,2.054,4.816,4.579,4.816c1.391,0,2.74-0.701,3.609-1.876 c0.482-0.652,1.191-1.026,1.947-1.026h1.263l-0.248,0.673C13.069,22.606,10.429,24.487,7.53,24.487z M12.085,14.521l0.024-0.73 c0-2.64-2.055-4.8-4.58-4.8c-2.524,0-4.579,2.16-4.579,4.816l-0.023,0.714H12.085z"/><path fill="#66798f" d="M7.53,7.039c3.6,0,6.53,3.036,6.53,6.767v2.625l-11.609,0v0.787c0,2.932,2.278,5.317,5.079,5.317 c1.587,0,3.064-0.799,4.01-2.079c0.369-0.498,0.925-0.823,1.545-0.823h0.546c0,0,0,0,0,0.001c-0.959,2.603-3.413,4.353-6.102,4.353 c-3.6,0-6.53-3.036-6.53-6.768v-3.412C1,10.075,3.929,7.039,7.53,7.039 M2.411,15.021h10.158l0.04-1.214 c0-2.931-2.278-5.316-5.079-5.316c-2.801,0-5.079,2.385-5.079,5.316L2.411,15.021 M7.53,6.039C3.378,6.039,0,9.524,0,13.807v3.412 c0,4.283,3.378,7.768,7.53,7.768c3.107,0,5.936-2.012,7.04-5.007l0.495-1.344l-1.433-0.002l-0.546-0.001 c-0.917,0-1.773,0.448-2.35,1.229c-0.775,1.048-1.973,1.674-3.206,1.674c-2.182,0-3.969-1.822-4.074-4.104l10.604,0l1,0v-1v-2.625 C15.06,9.524,11.682,6.039,7.53,6.039L7.53,6.039z M3.445,14.021l0.006-0.181C3.451,11.427,5.281,9.49,7.53,9.49 s4.079,1.936,4.079,4.316l-0.007,0.214H3.445L3.445,14.021z"/></g></svg>